<svg width="512" height="512" viewBox="0 0 512 512" fill="none" xmlns="http://www.w3.org/2000/svg">
  <path d="M418.426 0H93.5741C41.8945 0 0 41.8945 0 93.5741V418.426C0 470.105 41.8945 512 93.5741 512H418.426C470.105 512 512 470.105 512 418.426V93.5741C512 41.8945 470.105 0 418.426 0Z" fill="#FF5A81"/>
  <path d="M108.19 208.485C92.4324 208.485 77.5541 204.985 66.1754 198.865C53.9172 191.866 45.1774 183.107 38.178 171.729C32.0583 160.35 28.5586 147.231 28.5586 133.214C28.5586 119.196 32.0583 106.957 38.178 95.5781C44.2978 84.1995 53.936 74.5801 66.1754 68.4417C78.4336 61.4423 92.4324 58.8223 108.19 58.8223C117.81 58.8223 127.448 60.5815 135.327 63.2015C143.206 65.8216 150.205 69.3212 155.464 72.8209V113.077H152.844C144.085 106.957 136.225 101.698 129.207 99.0778C122.208 96.4577 114.329 94.6985 106.45 94.6985C100.33 94.6985 93.3306 96.4577 87.1921 99.0778C81.0724 101.698 75.8136 106.077 71.4343 112.197C67.055 118.317 65.3145 125.316 65.3145 134.075C65.3145 142.833 67.0737 149.832 71.4343 155.952C75.8136 162.072 81.0537 166.451 87.1921 169.071C93.3119 171.691 100.311 173.45 106.45 173.45C114.329 173.45 122.208 171.691 129.207 169.071C136.206 166.451 144.085 162.072 151.964 155.073H154.584V195.328C150.205 198.828 143.206 202.327 135.327 204.948C127.448 207.568 118.708 208.447 108.19 208.447V208.485Z" fill="white"/>
  <path d="M160.404 227.404L218.626 54.9473L255.101 67.2616L196.879 239.719L160.404 227.404Z" fill="white"/>
  <path d="M311.357 289.913C297.789 293.337 285.044 292.944 274.845 288.303C263.803 283.868 256.972 274.772 253.547 261.185C249.692 245.914 253.678 233.169 264.477 222.315C275.275 211.46 291.389 203.787 311.75 198.64C322.773 195.852 334.882 193.7 346.972 191.548L346.541 189.844C343.977 183.276 340.141 178.821 335.893 176.295C330.577 173.132 325.693 171.654 320.172 171.242C314.651 170.83 308.494 171.485 302.561 172.982C293.223 175.34 284.333 179.402 276.698 184.941C268.22 190.687 261.651 196.863 256.373 204.517L253.828 205.153L244.602 168.678C250.946 161.66 258.582 156.12 268.107 150.992C277.652 145.865 287.402 141.598 298.425 138.809C313.697 134.954 327.059 134.28 338.756 137.649C350.453 141.017 360.858 146.501 368.512 155.409C376.185 164.299 381.519 174.685 384.514 186.569L404.464 265.471L369.673 274.267L358.93 221.023L356.385 221.66C367.539 269.382 332.561 284.541 311.357 289.913ZM316.373 259.763C327.396 256.974 335.874 251.229 341.582 241.647C346.653 233.15 348.113 221.042 345.531 207.249L325.169 212.396C309.055 216.476 298.444 220.948 292.736 226.918C287.028 232.888 284.913 238.821 286.635 245.615C288.357 252.408 292.175 256.844 297.059 258.322C303.216 261.279 309.598 261.466 316.373 259.763Z" fill="white"/>
  <path d="M199.03 425.352C185.911 430.218 173.204 431.21 162.555 427.691C151.102 424.472 143.335 416.163 138.469 403.025C132.986 388.259 135.587 375.159 145.15 363.2C154.714 351.241 169.91 341.884 189.598 334.566C200.266 330.599 212.056 327.155 223.846 323.73L223.229 322.084C219.972 315.833 215.687 311.809 211.176 309.751C205.543 307.168 200.527 306.232 195.007 306.419C189.486 306.606 183.422 307.916 177.677 310.05C168.656 313.4 160.234 318.397 153.254 324.722C145.45 331.347 139.592 338.197 135.157 346.375L132.686 347.292L119.586 312.015C125.144 304.361 132.125 298.016 141.052 291.915C149.979 285.796 159.224 280.499 169.891 276.55C184.657 271.067 197.889 268.971 209.848 271.048C221.825 273.144 232.773 277.467 241.345 285.496C249.916 293.506 256.335 303.275 260.602 314.747L288.918 391.048L255.287 403.53L238.874 351.747L236.404 352.664C253.453 398.608 219.486 417.754 198.974 425.371L199.03 425.352ZM201.594 394.529C212.262 390.561 220.066 383.936 224.707 373.811C228.843 364.81 228.974 352.626 224.932 339.189L205.244 346.506C189.654 352.289 179.604 357.885 174.551 364.435C169.517 370.967 168.057 377.105 170.49 383.674C172.923 390.243 177.209 394.248 182.224 395.184C187.858 397.766 194.202 397.28 201.594 394.529Z" fill="white"/>
  <path d="M277.972 441.56L373.006 286.32L406.599 306.888L376.824 347.143L378.321 348.06C386.667 337.786 395.875 331.105 405.214 327.587C414.553 324.068 422.525 322.796 431.059 323.918C439.612 325.041 446.78 328.41 453.498 332.527C464.69 339.377 471.82 347.855 476.836 358.092C481.851 368.347 482.787 380.213 481.327 392.658C479.867 405.103 475.245 417.661 467.946 429.62C460.647 441.578 451.552 451.385 440.66 459.096C430.236 466.057 419.699 469.857 407.834 470.811C395.969 471.747 384.89 468.06 374.447 461.659C365.482 456.176 358.932 450.112 354.048 443.02C349.163 435.927 345.925 427.786 346.019 417.586C346.112 407.387 349.069 395.858 356.087 382.702L353.842 381.335L340.049 413.937L310.798 461.697L277.953 441.597L277.972 441.56ZM379.163 420.393C386.63 424.96 393.517 427.131 400.105 428.085C406.692 429.04 413.467 428.048 420.392 425.109C426.568 421.703 432.463 417.118 437.048 409.651C441.614 402.184 443.785 395.297 442.793 388.541C442.999 381.485 440.809 375.01 436.206 369.115C432.35 363.669 426.549 358.073 419.83 353.956C413.112 349.838 405.476 347.218 398.888 346.264C392.301 345.309 385.526 346.301 378.601 349.24C372.426 352.646 366.53 357.231 362.413 363.949C357.847 371.417 355.676 378.304 356.218 385.808C356.013 392.864 358.202 399.339 362.806 405.234C366.661 410.68 372.463 416.276 379.182 420.393H379.163Z" fill="white"/>
  </svg>